<svg width="308.76567048817896" height="304.9200042724609" viewBox="0 0 386.0583439072512 381.25" class="css-1j8o68f"><defs id="SvgjsDefs5028"></defs><g id="SvgjsG5029" featurekey="rootContainer" transform="matrix(3.5764545969005903,0,0,3.5764545969005903,-0.1986980256162816,0)" fill="#111111"><g xmlns="http://www.w3.org/2000/svg"><path d="M19.8 15.3h.5l-.4-.2zm.5.1zm.8-.7c0 .1 0 .1.1.1l.4-.3c-.2-.1-.3-.1-.5.2zm.4-.2zm-4.1 2.3zm-.2.6l.3-.2c.1-.1.1-.2.1-.2h-.2l-.2.4c-.1-.1-.1 0 0 0zm2.2-2.9h-.1l-.2.2h.3zm-2.1 2.4l.6-.5c.1-.1.1-.2.1-.3h-.3l-1.2 1.1-.2.4.7-.6zm-1.1.8z"></path><path d="M9.7 25v-.2a1.7 1.7 0 0 1 .7-1.1l.9-.6.5-.6.7-.7.4-.4.4-.3a1.9 1.9 0 0 0 .8-.9l.4-.5a5.9 5.9 0 0 0 1-1.3l.2-.3.3-.2-.2-.3.4-.5c.8-.6 1.4-1.4 2.2-2l.3-.3a1.4 1.4 0 0 1 .5-.6l.8-.4h.4a1.4 1.4 0 0 0 .7-.6V13a3.5 3.5 0 0 1 1.3-1.4l.8-.5.2-.2.4-.4 1-.5h.2l-1.1.4-1.4 1c-.6.5-1.4.6-1.8 1.4h.3c-.7.2-1.4.5-1.7 1.2s-.8.6-1.2.9a.4.4 0 0 0-.3.4c-.8-.1-1.1.5-1.5.9v.8a3.9 3.9 0 0 0-1.6 1.4c-1.6.1-1.6 2.1-3 2.5h-.1a.2.2 0 0 0 0 .2c-.3 0-.5.2-.4.5l-.2.5c-.7.4-.6 1.1-1 1.7-.8.5-1.1 1.5-1.7 2.2l.3.5.2-.2a11.6 11.6 0 0 1 .9-1.3zM53.9 3.3l.6.2h.2a2.2 2.2 0 0 0 1.4.2 4.1 4.1 0 0 1 1.9.1h1.2a1.4 1.4 0 0 1 1.2.3.1.1 0 0 1 0 .1H60a.1.1 0 0 0 0 .1h.7a1.8 1.8 0 0 1 1.3 0c.2 0 .1.1.2.2l.5.2h-.2c-.2-.4-.5-.4-.8-.4a9.7 9.7 0 0 0-4.3-.9h-.8A9.8 9.8 0 0 0 53 3h.2zm7.3 3.1zM50.3 4.7zm10.9 1.7h.2-.2zM19 14.7zm32.1-10zm17.6 2.2a.9.9 0 0 0 1 .2h.6a3.1 3.1 0 0 0-1.8-.7l-.7-.2.5.3zm-3.4-1.3c0 .1.1.2.2.3h.2l.5-.3a4.2 4.2 0 0 0-1.7-.6l.7.4zm7.4 2.7l.8.5c-.2-.3-.4-.5-.8-.5z"></path><path d="M99 76.1l.6-1.6.6-1.5c.2-.5.6-1.8.8-2.6a1.7 1.7 0 0 1 .3-.7h.1v-1.1c.5-.1.4-.6.5-.9l.8-4.7a12.7 12.7 0 0 0 0-6.2 1.9 1.9 0 0 0-.5-1.6v-4.3c-.3-.9.3-1.9-.4-2.7L101 45a.4.4 0 0 0 0-.2l-.2-.6a.5.5 0 0 1 0-.4h.1c.3 0 .3-.5.3-.9a3 3 0 0 0-.4-1.1l-.3-.4a1.1 1.1 0 0 1-.2-.7 6.7 6.7 0 0 0-.2-2v-.6c-.2-.7-.4-1.5-.6-2.2l-.2-.5a2.5 2.5 0 0 1-.4-1.1 2.5 2.5 0 0 0-.3-.8l-.6-1a.8.8 0 0 0-.6-.2h-.1V32h-.2v-.8H97V31a.4.4 0 0 0 0-.1v-.2c.1-.2.1-.3-.1-.5a1.8 1.8 0 0 1-.4-.6l-.2-.6a2.9 2.9 0 0 0-.7-1.2 2.2 2.2 0 0 1-.5-.7l-.7-1.6a4.3 4.3 0 0 0-.6-1l-.6-.8a2.4 2.4 0 0 1-.4-.8l-.2-.3a.6.6 0 0 1-.1-.5.5.5 0 0 0-.2-.4l-.4-.3v.2c.1.2 0 .3-.1.3h-.2l.3 1 .3.5.7.9h-.1l-.2-.2-.2-.2a1.3 1.3 0 0 0-1.2-1.1v-.7c-.3-1.2-1.6-1.3-2.2-2.1a1.5 1.5 0 0 0-1.1-.9l-.8-.9a11.3 11.3 0 0 0-3.1-3l-.8-.6-.4-.3c-.7-.7-1-1.8-2.2-1.8l-.8-.5-.9-.7a2.2 2.2 0 0 0-1.8-1.3 5.1 5.1 0 0 0-2.3-1.2l.2.2.5.4 1.3.7a8.5 8.5 0 0 1 2.1 1.6 6.8 6.8 0 0 0 1.5 1.1l.6.5c.1.1.2.2.1.3H81l-.9-.3a5.6 5.6 0 0 1-2-.8l-1.2-.6-1.3-.7h-.2c-.3-.1-.4-.4-.8-.5l-.8-.2-2.5-.5a2.6 2.6 0 0 1-.9-.7 1.7 1.7 0 0 1-.9-.3l-1-.4a18.1 18.1 0 0 1-2.8-.8l-.6-.2-1-.3h-.5l-.2-.3v-.1h-1.6l-.6-.5-.4.2-.4.2h-.2l-.9-.5c-.6.6-1.1-.2-1.6-.1l-1-.3a1.2 1.2 0 0 1-1.2 0h-1.2a.6.6 0 0 1-.5-.6l.3-.2h.6a.7.7 0 0 1 .1.3c0 .2.2.2.5.2h.2l-.4-.6a1.1 1.1 0 0 0-1-.2l-1 .3H53c.3.2.2.3.2.5h-1.6l-.4-.2-.8-.4h-.1l-.7-.2h-2.3l.4-.2.8-.2h.3l1.7-.3 1.1-.2.6-.2h-1.1a8.4 8.4 0 0 0-3.4 0h-1.3L43 3.6c-1.4.1-2.8 0-3.9 1.2-2.5-.4-4.7.7-6.9 1.8l-2.2.9a6.7 6.7 0 0 0-3.7 1.8h.3l.5-.3.8-.5 1.3-.6 1-.2a6 6 0 0 1 2-.9l.9-.3h.2c.1.2.5 0 .7 0h.2c.1 0 .1.1 0 .1l-.6.4 1-.3.8-.2-1.3.7-1.3.4a1 1 0 0 0-.6.5l-.3.5h.3l.4-.2a1.4 1.4 0 0 1 .9-.6l1.5-.5h.5a.1.1 0 0 1 .1.2c-.2.2-.6.3-.8.5h.2l-3.2.9-3.8 1.6a5.2 5.2 0 0 1-2.3 1.2 6.6 6.6 0 0 1-1.7 1.1l-.8.2a1.5 1.5 0 0 1-1.3.9l-.3.5a3.7 3.7 0 0 1-1.2 1.1h-.1v-.1l-.2.2-.2.2-1 .2h-.5l-.4.5c-.1.1-.1.2 0 .2h.1c-.6.6-1 1.4-1.8 1.7L15 19.9c-.6 1.2-1.8 1.6-2.6 2.6s-1.4 3.9-3.9 4.3l-.2-.3-.2.5a2.7 2.7 0 0 1-.4.8 16.9 16.9 0 0 0-1.2 2.1.8.8 0 0 0-.1.5 1.4 1.4 0 0 1-.2.8l-.5 1.1h.2c.3 0 .3.3.4.6l.8-1.1a2.2 2.2 0 0 1 .6-.7 2 2 0 0 0 .9-.9l.3-.3.4-.4.6-1.1h.2c.1.1.1.1.2 0l.2-.4h.5v.8l.5-.5a.5.5 0 0 0 0-.5.4.4 0 0 1 .1-.3 1.5 1.5 0 0 0 .3-.5 1.3 1.3 0 0 1 .8-.9l.3-.2.3-.3a2.4 2.4 0 0 0 .8-1l-.2-.3c0-.1.1-.3.2-.4h.5l.6-.8.6-.3h.2a48.8 48.8 0 0 0-5.5 7.2h-.1.1a48.4 48.4 0 0 0-5.3 11.2h-.5l-.5-.4c-.2-.2-.1-.7-.4-.9h.1c.3-.5-.1-1.2.3-1.7s.1-1.4-.9-1.2-1.5.5-1.3 1.5-1 1.8-1.1 2.9-.5.5-.3.9v3.9c.1.8-.5 1.8.8 2.1l1.3.9c.1.5-.5 1.6.9 1.3a49.2 49.2 0 0 0-.3 5c0 1.1.1 2.2.1 3.3v-.4c-.1-.4-.1-.8-.2-1.3l-.3.3v-.2h-.5c0 .5-.1.8-.4.9a.9.9 0 0 0-.1.5c0 .1.1.3.2.2s.4.2.7.4-.2.3-.4.2-.2.1-.2.3v.3l.5 1.5c0 .3-.1.6-.1.9a1.7 1.7 0 0 0 .2.8h-.3v-.3l-.7-.2v-.6a1.5 1.5 0 0 0 0-.5 14.6 14.6 0 0 1-.3-1.8 16.6 16.6 0 0 1-.2-3.5.9.9 0 0 1 .1-.5v.2a2.9 2.9 0 0 1 .1.5.8.8 0 0 0 .1.4c.1.2.2.4.4.4s.1-.1.1-.2a2.1 2.1 0 0 0-.1-.5 4.2 4.2 0 0 1-.3-1.3 1.5 1.5 0 0 0-.3-.7 1.6 1.6 0 0 1-.2-.9v-.8c0-.3.1-.6.1-.9a.5.5 0 0 0-.1-.4h-.1c-.8.4-.7.2-1 1.6V55c0 .7-.1 1.4 0 2.1a10.8 10.8 0 0 0 .2 2.3 1.8 1.8 0 0 1 0 .5 3.1 3.1 0 0 0 .1.9 5.9 5.9 0 0 1 .1 1.3 3.9 3.9 0 0 0 .2 1.7 1.2 1.2 0 0 1 0 .4 2.1 2.1 0 0 0 .1.8 4.9 4.9 0 0 1 .2.9 14 14 0 0 0 .5 2.2 5 5 0 0 1 .2 1 1.7 1.7 0 0 0 .3.7 2.9 2.9 0 0 1 .5 1.2 8.5 8.5 0 0 0 .3 1l.4 1.4a5.4 5.4 0 0 0 .6 1.5 8.5 8.5 0 0 1 .8 2.1l.2.5a2.1 2.1 0 0 1 .5 1 2.1 2.1 0 0 0 .4.8 1 1 0 0 1 .2.5c.1.3.2.4.4.3h.1v.9l.5 1 .5 1 1.1 1.2.4.4c.3.3.7.5.9 1l.4.3a.7.7 0 0 1 .3.5l.2.7a3.3 3.3 0 0 0 .6.9l.4.2h.3a.2.2 0 0 1 .1.3 2.5 2.5 0 0 0 0 .5.9.9 0 0 0 .4.5h.2c.4-.1.8.2 1.2.7h.1c0-.1.1-.1 0-.2v-.2c0-.1.1-.2.2-.1a.7.7 0 0 1 .3.6v.2a4.3 4.3 0 0 0 .4 1.2c.5.3.5.3.5.1s0-.2.2-.2h.4l.2.3.8.5c.7.8 1.8.7 2.6 1.2l1.7 1.7h.2a2.9 2.9 0 0 0 1.6 1.6 1.3 1.3 0 0 0 1 .6c0 .5.6.6 1.1.7a1.2 1.2 0 0 0 .8.4h.2a1.7 1.7 0 0 0 1.5.5l.9.8 2.4.9v.2c.5 1.1 1.7.7 2.5 1l1.1.4h.4c1.2.3 2.4.9 3.7.5a.7.7 0 0 0 0 .4c1.1.7 2.4 0 3.6.4a2.9 2.9 0 0 0 1.7.1h.1l.8.2h.3l.9.2h.3a.5.5 0 0 1 .5 0 7.9 7.9 0 0 0 1.5.4h.6a.7.7 0 0 1 .7 0h3.9a5 5 0 0 0 1.6-.1h1l.5-.2H60l.6-.2.5-.3h2.2v.6H62l-1.2.2c-.4.1-.7 0-1 .1a2.4 2.4 0 0 1-1 .2l-1.3.3h-.4a3.1 3.1 0 0 0-1.5.1h-1.8a1.1 1.1 0 0 1-.9 0h-4.5a1.3 1.3 0 0 0-1.1.3H47l-.3-.2v-.3h-1.2a4.1 4.1 0 0 0-1.3-.3h-2.5l-.7-.2-.5-.2-2.1-.4h-.5l-.5-.2-2.1-.7-1.4-.4h-2.2c-.1 0-.1.1-.1.2h.2c1.3.5 2.6.9 3.9 1.5h.3l.9.2 1.4.4h1.3l.6.2.7.3 1.7.3 1.1.2 1.1.2h.8l.8.2h3.1l1 .2h2.3l1-.2H56c.4 0 .6-.1.7-.3h1a1 1 0 0 0 .8-.3c-.1.1 0 .1.1.2h.4v-.2c0-.1 0-.1.2-.2s.6-.1.7.1h.4l.3-.2c.2 0 .2 0 .2.1h.7l.5-.2.8-.4c.1.3.4.4 1.3.2l1.3-.4h1.2c.9-.1 2 0 2.7-.7h.2l.4-.3 1.1-.3a6.1 6.1 0 0 0 2-.8l.4-.2h.1l.9-.6.4-.2.5-.2h.4c.4-.1.4-.1.5-.4s0-.1-.2-.1h-.1l.4-.5h.2c.3-.1.5-.2.7-.1h.2a1.3 1.3 0 0 0 .9-.9c.3-.4 1.1-.2 1.3-.8l4.3-3.1c1.1-.1 1.4-1.1 2.2-1.7s2.3-1.1 3-2.2l.9-.4h.1a1 1 0 0 0 1.2-.7v.4c.8-.4 1.8.3 2.6-.5s0-2.7 1-3.8l.7-.5a12.1 12.1 0 0 0 1.5-4.2l.2-.2c0-.3 0-.7.4-.9a.9.9 0 0 0 .2-1.2h-.2a.3.3 0 0 0 0-.3c.7 0 .8-.7 1.2-1V77a.5.5 0 0 1 0-.2 3.8 3.8 0 0 0 .1-.7zM5.9 32.2z"></path><path d="M26.4 9.3l-.3.2-.4.3.5-.2zm6.1-2h.1l.3-.2h-.4zm-2.6 1l-.1.1h.1v-.1zm-1.5 1.4zm1.3-.2zm-6.3 3.1zM9.2 26.2l-.4.4H9a.4.4 0 0 0 .2-.4zm3-3.5a2.1 2.1 0 0 0 .3-.6 1.5 1.5 0 0 0-.5.5c-.1.1-.1.2 0 .2zM11 24.2V24c-.2 0-.5.3-.8.3v.2c.3.3.4.2.8-.3zm3 66.2zM73.9 9.2h.1l-.5-.3zm-2.5-1.4c.5-.1.8.4 1.2.5h.1l-.3-.2-1-.5-1.1-.5.3.2zM52.8 3.1zm11.7 2h-.1l-1.2-.2h.5zm2 .7l1.3.4a3.3 3.3 0 0 0-1.3-.4zm-9 0a1 1 0 0 0 .2-.5h-.5l-.3.3.4.3zm9 1.6zM49.9 4.2zm2.9.7zM48.5 4zm13.8 2.1a.5.5 0 0 0 0 .1zm44.8 52.3h-.3V58h.3c.1 0 .2-.3.1-.4s-.1-.7-.3-.8a.3.3 0 0 1-.2-.3l.2-.4a.4.4 0 0 0 0-.2h-.2l-.2-.3c-.1.3-.2.6-.4.7a.5.5 0 0 0 0 .2c0 .1 0 .2-.1.2h-.1a1.1 1.1 0 0 1-.1.3 2.3 2.3 0 0 0-.4.9.4.4 0 0 0 .1.4h.1a1.7 1.7 0 0 0-.1.8v.4a1.8 1.8 0 0 1-.1.5h-.1l-.4.7v.6a1.5 1.5 0 0 1-.3 1.1h-.2l-.2-.2a.9.9 0 0 1-.1-.8 6.5 6.5 0 0 0 .1-1.7c0-.1-.1-.2-.1-.2a.5.5 0 0 0-.1.3v.6c0 .2-.1.6-.3.7s-.1.2-.1.3l-.2.6.3.5c-.2.2-.4.1-.5-.1v1h.3v.4a4.2 4.2 0 0 0-.3 1.4 3.3 3.3 0 0 0 0 .4 4 4 0 0 1-.2 1.3 2 2 0 0 0 0 .6l-.3.7a3.2 3.2 0 0 1-.3.7l-.3.6-.9 2.7c.3.9-.4 1.5-.8 2.1a2.7 2.7 0 0 1-.8 2.3v.4c0 .1.1.2.3.1l.4-.3.2-.4h.2c.1.1.2.1.4-.1h.2a.5.5 0 0 1 .1.6 2.9 2.9 0 0 0-.1.8c0 .1 0 .2.1.2h.2c.1.1.2 0 .3-.3l.2-.5h.3c.4-.1.4-.1.6-.6l.5-.9.3-.6.4-1a1.6 1.6 0 0 1 .3-1 .6.6 0 0 0 .1-.6c0-.2 0-.3.2-.6l.3-.4.5-1a4.7 4.7 0 0 1 .2-.9 3 3 0 0 0 .3-1.3 3.8 3.8 0 0 1 .3-.9v-.5c-.1-.2-.1-.2 0-.6s.1-.2.2-.2a.4.4 0 0 1 .1.3l.2-.5a2.3 2.3 0 0 0 .2-.9v-.3c0-.1 0-.3-.1-.3v.4c-.2 0-.3.2-.5.3a6.4 6.4 0 0 0 .1-.8l.4-.2a.7.7 0 0 0 .2-.6 1.4 1.4 0 0 1 0-.3 4.8 4.8 0 0 0 .2-1.4v-.2l.3-1h.1a.3.3 0 0 0 .1-.3h-.1a.9.9 0 0 1 .2-.8 1.5 1.5 0 0 0-.9-1zm-1.2 7.8zm-.2-9.9zm0 0zM9.1 30.8a.3.3 0 0 0 0-.2l-.2-.2-.2.2-.3.6c0 .3-.3.6-.3.9v.2h.1zm96.3 24.8h.1a1.7 1.7 0 0 0 .2-1.2.5.5 0 0 1 .2-.5h.1v-.2l-.2-.2h-.1c-.1.1-.2.3-.3.3s-.1.1-.1.3v.3a2.2 2.2 0 0 0 .1 1.2zM13.2 90.1c-.1 0 0 .2 0 .3l.8.8h.1c-.2-.3-.3-.6-.2-.7a.9.9 0 0 1-.5-.2zm.8.3zm92.3-35.7h.1a2 2 0 0 0 0-.6c-.3.1-.3.1-.3.6s.1.1.2 0z"></path><path d="M106.7 62a.6.6 0 0 0 .1-.5c0-.1-.1-.2-.1-.1h-.2v.2c0 .4.1.5.2.4zm.1-8.2h-.1v.6a1 1 0 0 0 .1-.6zM17.1 92.6h-.2v.2l.2.2h.2v-.2zm86.6-33.3c0-.1 0-.1-.1-.1zM9.9 86.5l.5.5-.4-.6z"></path><circle cx="10.5" cy="87.1" transform="rotate(-24.8 10.4 87.159)"></circle><path d="M9.7 30.1h-.1v.2-.2h.1zm83.2-6.6l-.2-.3h-.1zm-14.7 77.1zM5.9 32.2zm-.1.2a.3.3 0 0 0 .1-.2v.2zm1.9-4.9zM61.5 2.4zm42.8 58.2v.1-.1zM16.4 92.5h-.1c.1.1.2 0 .1-.1zm.2.7h.1l-.1-.1v.1zm73.9-71.3zm15.2 34.4zM14.6 91.7zm92.1-37zm-.8 11.4zM34.6 0z"></path></g></g><g id="SvgjsG5030" featurekey="symbolFeature-0" transform="matrix(1.852880795509444,0,0,1.852880795509444,100.35411896381906,46.76728231686437)" fill="#d26d3d"><path xmlns="http://www.w3.org/2000/svg" fill="#d26d3d" d="M43.758,60.575l1.002,17.536h0.912L44.1,59.92c-0.098,0.238-0.232,0.455-0.384,0.658L43.758,60.575z"></path><path xmlns="http://www.w3.org/2000/svg" fill="#d26d3d" d="M43.917,44.248l2.925,33.864h1.387l-4.107-34.285C44.065,43.974,43.994,44.112,43.917,44.248z"></path><polygon xmlns="http://www.w3.org/2000/svg" fill="#d26d3d" points="44.349,98.032 44.297,100.113 45.77,100.113 45.77,98.032 "></polygon><rect xmlns="http://www.w3.org/2000/svg" x="46.937" y="98.032" fill="#d26d3d" width="1.426" height="2.081"></rect><polygon xmlns="http://www.w3.org/2000/svg" fill="#d26d3d" points="43.129,100.099 43.182,98.032 41.169,98.032 41.169,100.113 43.713,100.113 "></polygon><polygon xmlns="http://www.w3.org/2000/svg" fill="#d26d3d" points="43.628,80.361 41.169,80.361 41.169,95.782 43.238,95.782 "></polygon><polygon xmlns="http://www.w3.org/2000/svg" fill="#d26d3d" points="44.406,95.782 45.77,95.782 45.77,80.361 44.794,80.361 "></polygon><polygon xmlns="http://www.w3.org/2000/svg" fill="#d26d3d" points="52.122,98.032 52.122,100.072 50.955,100.108 50.955,98.032 49.529,98.032 49.53,100.113   53.547,100.113 53.547,98.032 "></polygon><rect xmlns="http://www.w3.org/2000/svg" x="46.937" y="80.361" fill="#d26d3d" width="1.426" height="15.421"></rect><path xmlns="http://www.w3.org/2000/svg" fill="#d26d3d" d="M66.016,36.526c-1.469,0.284-1.773,2.552-1.773,2.552h-0.486c0.213-4.509,0.437-9.174,0.656-13.638h0.616  c0,0,0.306,2.268,1.773,2.552c1.447,0.281,4.714-0.429,4.787-3.583c-0.073-3.153-3.34-3.864-4.787-3.583  c-1.468,0.284-1.773,2.552-1.773,2.552h-0.516c0.105-2.143,0.209-4.226,0.309-6.201c-0.045-0.332-0.061-0.692-0.078-1.061  c-0.073-1.591-0.183-3.996-3.15-4.117l-22.726,0c-2.943,0.121-3.053,2.525-3.125,4.116c-0.017,0.368-0.033,0.729-0.081,1.167  c0.098,1.94,0.201,3.988,0.306,6.095h-0.994c0,0-0.305-2.268-1.772-2.552c-1.448-0.282-4.717,0.429-4.789,3.583  c0.072,3.154,3.341,3.863,4.789,3.583c1.467-0.284,1.772-2.552,1.772-2.552h1.095c0.22,4.458,0.446,9.124,0.658,13.638h-0.966  c0,0-0.306-2.268-1.772-2.552c-1.448-0.281-4.718,0.429-4.79,3.583c0.072,3.152,3.342,3.863,4.79,3.583  c1.467-0.284,1.772-2.552,1.772-2.552h1.063c0.233,4.99,0.445,9.704,0.61,13.636h-0.886c0,0-0.307-2.267-1.773-2.55  c-1.448-0.283-4.715,0.429-4.788,3.582c0.073,3.152,3.34,3.863,4.788,3.583c1.467-0.285,1.773-2.552,1.773-2.552h0.972  c0.186,4.6,0.288,7.784,0.25,8.493c-0.182,0.352-0.031,1.266,1.917,9.082c0.415,1.664,0.84,3.369,0.894,3.696h3.014l-0.953-16.647  c-0.388,0.187-0.817,0.301-1.276,0.301c-1.632,0-2.958-1.333-2.958-2.979c0-1.645,1.325-2.977,2.958-2.977  c1.056,0,1.977,0.56,2.5,1.397L42.839,45.33c-0.436,0.254-0.934,0.41-1.474,0.41c-1.632,0-2.958-1.333-2.958-2.978  c0-1.645,1.325-2.978,2.958-2.978c1.005,0,1.891,0.507,2.425,1.278l-1.384-11.56c-0.327,0.125-0.671,0.213-1.041,0.213  c-1.632,0-2.958-1.332-2.958-2.978c0-1.645,1.325-2.978,2.958-2.978c1.635,0,2.959,1.333,2.959,2.978c0,0.8-0.319,1.518-0.829,2.053  l5.903,49.322h1.68l5.427-49.319c-0.51-0.535-0.83-1.255-0.83-2.056c0-1.645,1.324-2.978,2.959-2.978  c1.632,0,2.958,1.333,2.958,2.978c0,1.646-1.326,2.978-2.958,2.978c-0.367,0-0.708-0.087-1.033-0.209l-1.253,11.389  c0.541-0.672,1.358-1.11,2.286-1.11c1.632,0,2.958,1.333,2.958,2.978c0,1.645-1.326,2.978-2.958,2.978  c-0.531,0-1.021-0.152-1.452-0.398l-0.844,11.587c0.543-0.677,1.363-1.119,2.296-1.119c1.632,0,2.958,1.332,2.958,2.977  c0,1.646-1.326,2.979-2.958,2.979c-0.45,0-0.872-0.109-1.254-0.29l-0.539,16.637h3.062c0.054-0.327,0.479-2.033,0.895-3.697  c1.95-7.817,2.101-8.73,1.918-9.081c-0.038-0.709,0.063-3.892,0.251-8.493h0.486c0,0,0.308,2.267,1.773,2.552  c1.45,0.28,4.716-0.431,4.789-3.583c-0.073-3.153-3.339-3.865-4.789-3.582c-1.466,0.283-1.773,2.55-1.773,2.55h-0.402  c0.165-3.931,0.377-8.644,0.609-13.636h0.582c0,0,0.305,2.268,1.773,2.552c1.447,0.28,4.716-0.43,4.789-3.583  C70.731,36.956,67.463,36.245,66.016,36.526z"></path><rect xmlns="http://www.w3.org/2000/svg" x="52.121" y="80.361" fill="#d26d3d" width="1.426" height="15.421"></rect><polygon xmlns="http://www.w3.org/2000/svg" fill="#d26d3d" points="56.111,98.032 54.714,98.032 54.714,100.113 56.164,100.113 "></polygon><polygon xmlns="http://www.w3.org/2000/svg" fill="#d26d3d" points="57.278,98.032 57.331,100.099 56.747,100.113 59.313,100.113 59.313,98.032 "></polygon><polygon xmlns="http://www.w3.org/2000/svg" fill="#d26d3d" points="59.313,80.361 56.831,80.361 57.222,95.782 59.313,95.782 "></polygon><polygon xmlns="http://www.w3.org/2000/svg" fill="#d26d3d" points="54.713,80.361 54.714,95.782 56.054,95.782 55.666,80.361 "></polygon><path xmlns="http://www.w3.org/2000/svg" fill="#d26d3d" d="M54.798,78.111h0.876l0.567-17.522l0.055,0.003c-0.074-0.097-0.141-0.196-0.202-0.3L54.798,78.111z"></path><rect xmlns="http://www.w3.org/2000/svg" x="49.526" y="80.361" fill="#d26d3d" width="1.429" height="15.421"></rect><path xmlns="http://www.w3.org/2000/svg" fill="#d26d3d" d="M52.25,78.111h1.379l2.462-33.853c-0.033-0.057-0.065-0.115-0.095-0.174L52.25,78.111z"></path></g><g id="SvgjsG5031" featurekey="nameFeature-0" transform="matrix(0.8808133330537782,0,0,0.8808133330537782,90.1791063775369,242.41796128861958)" fill="#ffffff"><path d="M21.035 17.754 l-10.391 0 l0 4.6875 l8.9063 0 l0 6.4063 l-8.9063 0 l0 11.152 l-7.4414 0 l0 -28.711 l17.832 0 l0 6.4648 z M48.20690625 40 l-8.8281 0 l-7.4805 -12.305 l0 12.305 l-7.4414 0 l0 -28.711 l10.996 0 c6.875 0 9.6094 3.9453 9.6094 8.8672 c0 4.043 -2.3828 6.4063 -5.8203 7.1484 z M37.97290625 20.234 c0 -1.7578 -0.99609 -2.8711 -3.75 -2.8711 l-2.3242 0 l0 5.7617 l2.3242 0 c2.7539 0 3.75 -1.1328 3.75 -2.8906 z M67.85984375 17.754 l-10 0 l0 4.6875 l8.9063 0 l0 6.4063 l-8.9063 0 l0 4.6289 l10 0 l0 6.5234 l-17.441 0 l0 -28.711 l17.441 0 l0 6.4648 z M90.18753125 11.289000000000001 l0 6.4648 l-6.4844 0 l0 22.246 l-7.3633 0 l0 -22.246 l-6.5039 0 l0 -6.4648 l20.352 0 z M109.68371875 24.766 c3.0469 0.9375 5.0781 2.9297 5.0781 7.0313 c0 5 -2.793 8.2031 -9.5508 8.2031 l-12.246 0 l0 -28.711 l9.668 0 c6.8945 0 10.098 2.9102 10.098 8.0273 c0 2.4023 -0.97656 4.3555 -3.0469 5.4492 z M102.76971875 17.363 l-2.6563 0 l0 5.0781 l2.6563 0 c2.4805 0 3.1445 -1.1133 3.1445 -2.6367 c0 -1.4453 -0.83984 -2.4414 -3.1445 -2.4414 z M103.76571875 33.7109 c3.2031 0 3.7891 -1.3867 3.7891 -2.7539 c0 -1.3477 -0.50781 -2.9102 -3.7891 -2.9102 l-3.6523 0 l0 5.6641 l3.6523 0 z M131.112875 40.39063 c-8.6719 0 -14.902 -5.8789 -14.902 -14.746 c0 -8.9258 6.2305 -14.766 14.902 -14.766 c8.6914 0 14.922 5.8398 14.922 14.766 c0 8.8672 -6.2305 14.746 -14.922 14.746 z M131.112875 33.6328 c4.3359 0 7.5781 -3.0664 7.5781 -7.9883 s-3.2422 -8.0078 -7.5781 -8.0078 c-4.3164 0 -7.5195 3.0859 -7.5195 8.0078 s3.2031 7.9883 7.5195 7.9883 z M169.26203125 40 l-1.8555 -5.3125 l-11.484 0 l-1.8359 5.3125 l-7.5586 0 l10.566 -28.711 l9.1602 0 l10.566 28.711 l-7.5586 0 z M158.05103125 28.555 l7.2266 0 l-3.6133 -10.391 z M202.9764375 40 l-8.8281 0 l-7.4805 -12.305 l0 12.305 l-7.4414 0 l0 -28.711 l10.996 0 c6.875 0 9.6094 3.9453 9.6094 8.8672 c0 4.043 -2.3828 6.4063 -5.8203 7.1484 z M192.7424375 20.234 c0 -1.7578 -0.99609 -2.8711 -3.75 -2.8711 l-2.3242 0 l0 5.7617 l2.3242 0 c2.7539 0 3.75 -1.1328 3.75 -2.8906 z M205.187475 40 l0 -28.711 l11.113 0 c9.3945 0 13.965 5.625 13.965 14.355 c0 8.7109 -4.5703 14.355 -13.965 14.355 l-11.113 0 z M212.629375 33.4766 l3.2813 0 c4.5117 0 6.5234 -2.5977 6.5234 -7.832 c0 -5.2539 -2.0117 -7.8906 -6.5234 -7.8906 l-3.2813 0 l0 15.723 z"></path></g><g id="SvgjsG5032" featurekey="sloganFeature-0" transform="matrix(1.037147138062479,0,0,1.037147138062479,138.2151833020184,291.94306006090875)" fill="#d26d3d"><path d="M13.71 19.66 c0.07 0.2 -0.02 0.34 -0.24 0.34 l-2.74 0 c-0.16 0 -0.28 -0.06 -0.34 -0.24 l-0.64 -1.94 l-5.01 0 l-0.64 1.94 c-0.05 0.18 -0.18 0.24 -0.34 0.24 l-2.74 0 c-0.22 0 -0.31 -0.14 -0.24 -0.34 l4.9 -13.42 c0.06 -0.16 0.18 -0.24 0.34 -0.24 l2.4 0 c0.16 0 0.33 0.08 0.39 0.24 z M5.65 15.09 l3.2 0 l-1.6 -4.84 z M26.836 16.02 l1.62 1.75 c0.12 0.14 0.15 0.28 0.01 0.42 c-1.22 1.25 -3.01 2.07 -4.96 2.07 c-4.01 0 -7.26 -3.17 -7.26 -7.2 c0 -4.05 3.25 -7.22 7.26 -7.22 c1.95 0 3.74 0.8 4.96 2.07 c0.14 0.15 0.11 0.28 -0.01 0.42 l-1.62 1.75 c-0.11 0.14 -0.28 0.14 -0.42 0.02 c-0.77 -0.66 -1.74 -1.09 -2.94 -1.09 c-2.18 0 -3.89 1.74 -3.89 4.05 c0 2.29 1.71 4.03 3.89 4.03 c1.2 0 2.17 -0.43 2.94 -1.09 c0.14 -0.12 0.31 -0.12 0.42 0.02 z M43.872 19.66 c0.07 0.2 -0.02 0.34 -0.24 0.34 l-2.74 0 c-0.16 0 -0.28 -0.06 -0.34 -0.24 l-0.64 -1.94 l-5.01 0 l-0.64 1.94 c-0.05 0.18 -0.18 0.24 -0.34 0.24 l-2.74 0 c-0.22 0 -0.31 -0.14 -0.24 -0.34 l4.9 -13.42 c0.06 -0.16 0.18 -0.24 0.34 -0.24 l2.4 0 c0.16 0 0.33 0.08 0.39 0.24 z M35.812 15.09 l3.2 0 l-1.6 -4.84 z M51.378 6 c4.78 0 7.35 3.12 7.35 7 s-2.57 7 -7.35 7 l-4.27 0 c-0.18 0 -0.3 -0.12 -0.3 -0.3 l0 -13.4 c0 -0.18 0.12 -0.3 0.3 -0.3 l4.27 0 z M51.378 17.16 c2.71 0 4.07 -1.5 4.07 -4.16 s-1.36 -4.16 -4.07 -4.16 l-1.34 0 l0 8.32 l1.34 0 z M70.904 17.16 c0.18 0 0.3 0.12 0.3 0.3 l0 2.24 c0 0.18 -0.12 0.3 -0.3 0.3 l-8.77 0 c-0.18 0 -0.3 -0.12 -0.3 -0.3 l0 -13.4 c0 -0.18 0.12 -0.3 0.3 -0.3 l8.75 0 c0.18 0 0.3 0.12 0.3 0.3 l0 2.24 c0 0.18 -0.12 0.3 -0.3 0.3 l-5.82 0 l0 2.69 l5.33 0 c0.18 0 0.3 0.12 0.3 0.3 l0 2.24 c0 0.18 -0.12 0.3 -0.3 0.3 l-5.33 0 l0 2.79 l5.84 0 z M89.25 6 c0.18 0 0.3 0.12 0.3 0.3 l0 13.4 c0 0.18 -0.12 0.3 -0.3 0.3 l-2.63 0 c-0.18 0 -0.3 -0.12 -0.3 -0.3 l0 -6.64 l-2.64 6.69 c-0.06 0.16 -0.2 0.25 -0.36 0.25 l-2.36 0 c-0.16 0 -0.31 -0.09 -0.37 -0.25 l-2.65 -6.72 l0 6.67 c0 0.18 -0.12 0.3 -0.3 0.3 l-2.63 0 c-0.18 0 -0.3 -0.12 -0.3 -0.3 l0 -13.4 c0 -0.18 0.12 -0.3 0.3 -0.3 l2.95 0 c0.16 0 0.3 0.06 0.36 0.2 l3.82 10.06 l3.81 -10.06 c0.06 -0.14 0.2 -0.2 0.36 -0.2 l2.94 0 z M105.486 6 c0.24 0 0.33 0.13 0.2 0.36 l-5.01 8.22 l0 5.12 c0 0.18 -0.12 0.3 -0.3 0.3 l-2.63 0 c-0.18 0 -0.3 -0.12 -0.3 -0.3 l0 -5.16 l-5.02 -8.18 c-0.14 -0.23 -0.04 -0.36 0.2 -0.36 l2.97 0 c0.16 0 0.27 0.06 0.36 0.2 l3.1 5.16 l3.11 -5.16 c0.09 -0.14 0.2 -0.2 0.36 -0.2 l2.96 0 z"></path></g></svg>