<svg width="396" height="190.4911995109411" viewBox="0 0 350 168.36343391118533" class="css-1j8o68f"><defs id="SvgjsDefs7570"></defs><g id="SvgjsG7571" featurekey="symbolFeature-0" transform="matrix(1.5555555555555556,0,0,1.5555555555555556,97.22222222222223,-42.03266355726454)" fill="#f8b500"><path xmlns="http://www.w3.org/2000/svg" fill="#f8b500" d="M94.938,52.555c-0.501-5.798-7.265-7.444-7.265-7.444s-0.722-0.22-1.951-0.593l0.304-0.93l2.402,0.138  l1.001-3.064l-2.413-1.602l-3.03-0.176l-1.001,3.064l2.043,1.238l-0.333,1.02c-1.707-0.519-4.044-1.229-6.753-2.052l0.387-1.185  l2.402,0.138l1.001-3.064l-2.413-1.602l-3.03-0.176l-1.001,3.064l2.043,1.238l-0.417,1.275c-2.161-0.656-4.517-1.371-6.946-2.108  l0.38-1.163l2.402,0.138l1.001-3.064l-2.413-1.602l-3.03-0.176l-1.001,3.064l2.043,1.238l-0.41,1.254  c-2.184-0.662-4.408-1.336-6.588-1.996l0.337-1.032l2.402,0.138l1.001-3.064l-2.413-1.602l-3.03-0.176l-1.001,3.064l2.043,1.238  l-0.367,1.123c-2.404-0.728-4.729-1.43-6.861-2.073l0.283-0.867l2.402,0.138l1.001-3.064l-2.413-1.602l-3.03-0.176l-1.001,3.064  l2.043,1.238l-0.313,0.959c-2.663-0.802-4.961-1.492-6.638-1.991l0.332-1.017l2.402,0.138l1.001-3.064l-2.413-1.602l-3.03-0.176  l-1.001,3.064l2.043,1.238l-0.364,1.114c-0.56-0.165-1.008-0.296-1.327-0.388c-5.118-1.467-5.082,0-6.979,2.183  c-1.897,2.183-3.579,2.04-3.579,2.04L5,35.376v14.316h24.945c0,0,7.516,0.25,10.2,2.434c5.004,4.486,4.939,9.269,4.939,9.305  c22.905,0,29.526-5.547,30.134-4.867s2.004,6.8,9.878,7.516S95.439,58.352,94.938,52.555z"></path></g><g id="SvgjsG7572" featurekey="nameFeature-0" transform="matrix(3.0261109192292137,0,0,3.0261109192292137,-3.631333968852335,60.44855609128571)" fill="#f7f7f7"><path d="M10.06 8.66 l-5.86 0 l0 3.06 l4.82 0 l0 2.5 l-4.82 0 l0 5.78 l-3 0 l0 -14 l8.86 0 l0 2.66 z M22.98 20 l-3.1 0 l-2.98 -4.66 l-0.04 0 l-1.98 0 l0 4.66 l-2.92 0 l0 -14 l4.9 0 c3.14 0 5.18 1.9 5.18 4.76 c0 1.9 -0.92 3.32 -2.48 4.04 z M14.879999999999999 8.68 l0 4.14 l1.8 0 c1.44 0 2.44 -0.56 2.44 -2.06 c0 -1.48 -1 -2.08 -2.44 -2.08 l-1.8 0 z M27.7 17.32 l5.92 0 l0 2.68 l-6.32 0 l-2.52 0 l0 -14 l2.92 0 l5.74 0 l0 2.68 l-5.74 0 l0 2.96 l4.34 0 l0 2.64 l-4.34 0 l0 3.04 z M45.22 6 l0 2.68 l-3.48 0 l0 11.32 l-2.92 0 l0 -11.32 l-3.5 0 l0 -2.68 l9.9 0 z M54.94 12.24 c1.48 0.4 2.88 1.72 2.88 3.66 c0 2.54 -1.6 4.1 -5.08 4.1 l-5.52 0 l0 -14 l5.22 0 c2.9 0 4.36 1.64 4.36 3.52 c0 1.48 -0.96 2.32 -1.86 2.72 z M52.16 8.56 l-2.02 0 l0 2.82 l2.02 0 c1.24 0 1.74 -0.58 1.74 -1.42 c0 -0.9 -0.58 -1.4 -1.74 -1.4 z M52.58 17.44 c1.6 0 2.32 -0.66 2.32 -1.9 c0 -1.06 -0.72 -1.8 -2.44 -1.8 l-2.32 0 l0 3.7 l2.44 0 z M66.67999999999999 5.800000000000001 c3.9 0 7.26 2.94 7.26 7.2 s-3.36 7.2 -7.26 7.2 s-7.26 -2.94 -7.26 -7.2 s3.36 -7.2 7.26 -7.2 z M66.67999999999999 17.46 c2.36 0 4.22 -1.86 4.22 -4.46 s-1.86 -4.46 -4.22 -4.46 s-4.22 1.86 -4.22 4.46 s1.86 4.46 4.22 4.46 z M87.22 20 l-1.06 -2.5 l-6.76 0 l-1.06 2.5 l-3.1 0 l6.22 -14 l2.64 0 l6.24 14 l-3.12 0 z M80.42 15.120000000000001 l4.72 0 l-2.36 -5.54 z M102.96000000000001 20 l-3.1 0 l-2.98 -4.66 l-0.04 0 l-1.98 0 l0 4.66 l-2.92 0 l0 -14 l4.9 0 c3.14 0 5.18 1.9 5.18 4.76 c0 1.9 -0.92 3.32 -2.48 4.04 z M94.86000000000001 8.68 l0 4.14 l1.8 0 c1.44 0 2.44 -0.56 2.44 -2.06 c0 -1.48 -1 -2.08 -2.44 -2.08 l-1.8 0 z M109.76 6 c3.98 0 7.1 3.12 7.1 6.92 c0 3.96 -3.12 7.08 -7.1 7.08 l-5 0 l0 -14 l5 0 z M109.74000000000001 17.240000000000002 c2.68 0 4.12 -1.94 4.12 -4.32 c0 -2.22 -1.44 -4.16 -4.12 -4.16 l-2.06 0 l0 8.48 l2.06 0 z"></path></g><g id="SvgjsG7573" featurekey="sloganFeature-0" transform="matrix(1.6791995305769294,0,0,1.6791995305769294,79.32831962727592,134.20851840584402)" fill="#f8b500"><path d="M6.86 6.66 l-0.82 -1.84 l2.4 0 l7.18 15.18 l-2.44 0 l-0.98 -2.18 l-4.54 0 q-1.28 0 -2.3 0.24 q-0.9 0.22 -1.5 0.58 q-0.54 0.32 -0.72 0.66 l-0.38 0.7 l-2.36 0 z M8.46 15.620000000000001 l2.76 0 l-3.26 -6.3 l-3.3 7.14 q0.44 -0.38 1.34 -0.6 q1.02 -0.24 2.46 -0.24 z M31.2 7 l-1.4 1.64 q-0.82 -0.84 -1.96 -1.32 t-2.4 -0.48 q-1.64 0 -2.99 0.74 t-2.11 2.02 q-0.78 1.34 -0.78 2.98 q0 1.56 0.84 2.88 q0.8 1.24 2.15 1.97 t2.91 0.73 q1.44 0 2.68 -0.62 t2.06 -1.72 l1.34 1.82 q-1.14 1.28 -2.73 1.99 t-3.37 0.71 q-2.22 0 -4.08 -1.08 q-1.82 -1.04 -2.86 -2.86 q-1.08 -1.86 -1.08 -4.08 q0 -2.14 1.14 -3.94 q1.08 -1.72 2.93 -2.73 t3.97 -1.01 q1.66 0 3.16 0.64 q1.46 0.6 2.58 1.72 z M39.4 6.66 l-0.82 -1.84 l2.4 0 l7.18 15.18 l-2.44 0 l-0.98 -2.18 l-4.54 0 q-1.28 0 -2.3 0.24 q-0.9 0.22 -1.5 0.58 q-0.54 0.32 -0.72 0.66 l-0.38 0.7 l-2.36 0 z M41 15.620000000000001 l2.76 0 l-3.26 -6.3 l-3.3 7.14 q0.44 -0.38 1.34 -0.6 q1.02 -0.24 2.46 -0.24 z M53.94 7.279999999999999 l0 10.54 l3.38 0 q1.4 0 2.52 -0.72 q1.06 -0.7 1.66 -1.88 t0.6 -2.58 q0 -1.46 -0.57 -2.68 t-1.63 -1.94 q-1.14 -0.74 -2.62 -0.74 l-3.34 0 z M50.62 7.279999999999999 l-0.96 -2.2 l7.6 0 q1.98 0 3.62 1.02 q1.58 0.98 2.5 2.68 t0.92 3.7 q0 1.5 -0.59 2.97 t-1.63 2.57 q-1 1.08 -2.14 1.54 q-1.1 0.44 -2.62 0.44 l-5.52 0 l0 -12.72 l-1.18 0 z M69.88 14.02 l0 3.8 l9.2 0 l0 2.18 l-11.38 0 l0 -14.92 l10.5 0 l0 2.2 l-8.32 0 l0 4.52 q0.62 -0.36 1.38 -0.48 q0.56 -0.1 1.44 -0.1 l3.26 0 l0 2.22 l-3.26 0 q-0.82 0 -1.44 0.1 q-0.76 0.14 -1.38 0.48 z M95.32 9.74 l-5.1 6.1 l-5.06 -6.1 l0 10.26 l-2.14 0 l0 -12.82 l-1.74 -2.1 l2.82 0 l6.1 7.32 l6.18 -7.32 l2.82 0 l-1.74 2.1 l0 12.82 l-2.14 0 l0 -10.26 z M107.24 11.64 q1.34 -1.4 2.42 -3.12 t1.72 -3.44 l2.5 0 q-1.02 2.38 -2.48 4.56 q-1.32 1.98 -3.08 3.9 l0 6.46 l-2.16 0 l0 -6.46 q-1.76 -1.92 -3.08 -3.9 q-1.46 -2.18 -2.48 -4.56 l2.5 0 q0.64 1.72 1.72 3.44 t2.42 3.12 z"></path></g></svg>